<svg class="Header_logoSvg__saOXN" fill="none" height="40" viewBox="0 0 126 40" width="126" xmlns="http://www.w3.org/2000/svg"><linearGradient id="a" gradientUnits="userSpaceOnUse" x1="32.8979" x2="3.4258" y1="13.2258" y2="43.3513"><stop offset="0" stop-color="#11a06b"></stop><stop offset="1" stop-color="#286feb"></stop></linearGradient><g fill="url(#a)"><path d="m14.6993 32.947-1.0995 1.3902 2.4875 3.8722-.2593 1.7906h10.553l.7306-1.7906-4.2446-5.2624z"></path><path d="m20.4707 9.38222-3.8172 6.65638 18.6185 21.9488-.5296 2.0126h8.5403l1.5451-7.1404-19.9225-23.48102z"></path><path d="m23.0058 4.37813-1.8155 3.33h4.504l7.7294 9.16387 4.5953-3.7595v-2.3874l-1.5963-2.23452 1.1798-1.22282-9.2197-7.26776z"></path><path d="m9.14695 22.9278h-2.51681l-6.62989586 8.3851v8.6871h7.11207586l1.25657-1.6268 5.48661-7.0785h7.9376l2.4437-3.7303-8.6061-10.1756z"></path></g><path clip-rule="evenodd" d="m77.1217 27.387h6.1921v-9.4607h-6.1921zm.2169 3.7843c-1.7235 0-2.6188-.2793-3.3563-1.0464-1.1083-1.1093-1.5382-2.6514-1.5382-7.4309s.4299-6.3215 1.5382-7.4623c.7099-.7395 1.6328-1.0188 3.3563-1.0188h5.7583c1.7235 0 2.6188.2793 3.3563 1.0188 1.1083 1.1408 1.5382 2.6513 1.5382 7.4623s-.4299 6.3216-1.5382 7.4309c-.7375.771-1.6328 1.0464-3.3563 1.0464z" fill="#181c1f" fill-rule="evenodd"></path><path clip-rule="evenodd" d="m101.997 19.5589v.1809 11.4276h4.709v-11.9822c0-2.4862-.276-3.3791-.986-4.0557-.647-.6452-1.574-.9363-3.021-.9363l-4.1416.0118-2.3743 2.1361v-2.1361h-1.5894-3.104v16.9584h4.7092v-13.2449h5.7901v1.6325z" fill="#181c1f" fill-rule="evenodd"></path><path clip-rule="evenodd" d="m65.0766 9.53952h5.6084l-8.0537 10.16478 8.3929 11.463h-5.9476l-6.3853-9.0044-1.5145-.0078v9.0122h-5.0484v-21.62778h5.0484v8.38278h1.5145z" fill="#181c1f" fill-rule="evenodd"></path><path clip-rule="evenodd" d="m121.161 14.2092v2.136l-2.375-2.136-3.534-.0118c-1.692 0-2.685.2911-3.455 1.0267-1.017 1.0424-1.51 3.324-1.51 7.5016 0 4.1777.402 6.3648 1.384 7.3797.769.7357 1.684 1.0622 3.503 1.0622h5.975l.008 2.4271-8.295.0157.008.9953 2.142 2.3681h6.484c1.723 0 2.709-.3069 3.325-.952.769-.7985 1.076-1.2942 1.076-4.2091v-17.5996h-4.74zm.031 13.1584h-6.192v-9.445h6.188v9.445z" fill="#181c1f" fill-rule="evenodd"></path></svg>
