<?xml version="1.0" standalone="no"?>
<!DOCTYPE svg PUBLIC "-//W3C//DTD SVG 20010904//EN"
 "http://www.w3.org/TR/2001/REC-SVG-20010904/DTD/svg10.dtd">
<svg version="1.0" xmlns="http://www.w3.org/2000/svg"
 width="1280.000000pt" height="1280.000000pt" viewBox="0 0 1280.000000 1280.000000"
 preserveAspectRatio="xMidYMid meet">
<metadata>
Created by potrace 1.15, written by Peter Selinger 2001-2017
</metadata>
<g transform="translate(0.000000,1280.000000) scale(0.100000,-0.100000)"
fill="#000000" stroke="none">
<path d="M9560 9165 c-269 -57 -536 -246 -752 -530 -115 -152 -248 -381 -332
-572 -15 -35 -33 -63 -40 -63 -7 0 -35 7 -63 15 -186 55 -463 100 -1028 166
l-440 51 -98 -16 c-204 -33 -368 -126 -562 -321 -245 -245 -451 -606 -614
-1079 -148 -429 -224 -827 -224 -1171 0 -276 27 -374 164 -592 44 -68 79 -129
79 -134 0 -5 -12 -6 -26 -3 -14 4 -103 0 -198 -7 -218 -18 -201 -19 -199 11
24 237 57 709 73 1040 21 427 33 943 34 1495 1 511 -1 590 -16 665 -21 105
-62 187 -105 213 -48 28 -894 123 -953 107 -86 -23 -139 -116 -141 -244 0 -60
0 -61 -16 -36 -38 58 -191 197 -263 237 -155 87 -210 99 -749 159 -536 61
-641 64 -791 25 -335 -87 -631 -302 -751 -546 l-39 -80 20 -210 c129 -1362
398 -3012 555 -3405 94 -236 215 -360 349 -360 61 0 886 98 938 111 78 20 121
107 137 278 5 51 12 96 17 101 5 4 43 18 85 29 42 12 109 33 149 46 41 14 74
24 75 22 2 -1 -1 -47 -6 -102 -12 -143 -11 -336 2 -394 14 -67 45 -111 99
-141 39 -22 60 -25 161 -28 98 -3 178 4 503 48 l386 52 118 -36 c133 -42 252
-65 329 -66 28 0 220 25 427 55 l375 54 63 -28 c173 -78 261 -76 853 17 248
39 493 83 546 97 345 90 667 252 903 453 l70 59 58 -98 c212 -358 442 -543
740 -595 112 -20 368 -14 518 11 156 26 759 145 845 166 562 141 998 515 1109
952 9 32 21 105 27 163 27 239 -46 701 -132 841 -41 66 -150 108 -345 135
-119 16 -1081 15 -1338 -2 -353 -22 -510 -71 -573 -177 -23 -39 -25 -52 -22
-128 5 -106 -5 -97 -55 55 -49 148 -57 222 -46 428 35 648 215 1043 702 1547
142 148 208 199 372 290 197 111 233 134 289 185 65 59 102 125 117 210 27
149 -27 256 -174 344 -87 52 -175 77 -566 162 -391 84 -503 97 -630 69z
m-2014 -1975 c36 -47 83 -122 106 -168 l40 -84 -5 -581 c-7 -705 -19 -846 -88
-1051 -85 -254 -199 -419 -376 -543 l-61 -43 -39 43 c-201 218 -374 706 -399
1128 -8 124 7 210 68 399 125 388 335 805 528 1049 l42 53 60 -58 c33 -33 89
-97 124 -144z m-3467 75 c-5 -49 -11 -91 -13 -92 -3 -3 -86 32 -105 44 -2 1
25 33 60 71 35 38 65 68 66 67 2 -1 -2 -41 -8 -90z m-890 -985 c62 -120 105
-244 131 -370 25 -123 25 -166 0 -233 -41 -108 -43 -106 -80 69 -40 196 -106
542 -115 609 -8 62 -2 54 64 -75z m6746 -795 c238 -32 355 -50 466 -75 153
-33 171 -39 165 -58 -2 -9 -11 -42 -20 -73 -22 -79 -105 -200 -202 -297 l-84
-83 -28 19 c-64 46 -213 186 -282 267 -78 89 -203 254 -235 308 l-18 30 24 -7
c13 -3 110 -18 214 -31z"/>
</g>
</svg>
