<svg xmlns="http://www.w3.org/2000/svg" xmlns:xlink="http://www.w3.org/1999/xlink" viewBox="0 0 6000 840" fill="#ff492f" >
  <svg id="Layer_m" x="0" data-name="Layer m" xmlns="http://www.w3.org/2000/svg" >
		<g id="logo_m">
			<path class="cls-1" d="M886.7-.1C767.6-.1,685.5,61.3,650.1,174.4h-3.2C614.7,67.7,531-.1,399.1-.1,283.2-.1,207.6,61.3,173.8,174.4h-3.2V16H0V823.7H175.4V339.1c0-132.5,48.3-206.8,157.7-206.8,104.6,0,156.1,67.8,156.1,218.1V823.7H664.6V339.1c0-132.5,46.7-206.8,156.1-206.8,106.2,0,156.1,67.8,156.1,218.1V823.7h175.4v-525C1152.2,121.1,1065.3-.1,886.7-.1Z"></path>
		</g>
	</svg>
	<svg id="Layer_o_left" x="1200" data-name="Layer o left" xmlns="http://www.w3.org/2000/svg" >
		<g id="logo_o_left">
			<path class="cls-1" d="M395.57,709.94c-133.6,0-227.7-117.9-227.7-289.2,0-172.8,94.1-289.1,227.7-289.1V.74c-244.6,0-394.3,201.9-394.3,420s149.6,420,394.2,420Z"></path>
		</g>
	</svg>
	
	<svg id="Layer_o_middle" x="1590" width="600" data-name="Layer o middle" xmlns="http://www.w3.org/2000/svg" preserveAspectRatio="xMinYMin">
		<g id="logo_o_middle">
			<path class="cls-1" d="M17630000,0H0V130.9H17630000ZM-.1,840H17630000V709.2H0Z"></path>
		</g>
	</svg>
	
	<svg id="Layer_o_right" x="2180" data-name="Layer o right" xmlns="http://www.w3.org/2000/svg" >
		<g id="logo_o_right">
			<path class="cls-1" d="M.1,131.07c135.2,0,229.3,116.3,229.3,289.1,0,171.2-94.2,289.2-229.3,289.2v130.8c244.6,0,394.2-201.9,394.2-420S244.6.17.1.17Z"></path>
		</g>
	</svg>
	
	<svg id="Layer_v" x="2580" data-name="Layer v" xmlns="http://www.w3.org/2000/svg" >
		<g id="logo_v">
			<polygon class="cls-1" points="381.41 772.1 177.11 16 0.11 16 220.51 823.8 544.01 823.8 762.81 16 587.41 16 381.41 772.1"></polygon>
		</g>
	</svg>
	
	<svg id="Layer_e" x="3380"  data-name="Layer e" xmlns="http://www.w3.org/2000/svg" >
		<g id="logo_e">
			<path class="cls-1" d="M376.5-.1C136.7-.1-.1,197-.1,419.9s140,420,379.8,420c196.3,0,321.8-106.6,355.6-266.5H559.9c-19.3,64.6-64.4,135.7-169,135.7-122.3,0-207.6-85.6-215.6-232.6H749.8C774,195.4,616.3-.1,376.5-.1ZM177,345.6c11.3-130.9,82.1-214.9,199.5-214.9s186.7,84,197.9,214.9Z"></path>
		</g>
	</svg>
	
	<svg id="Layer_lab" x="4180"  data-name="Layer lab" xmlns="http://www.w3.org/2000/svg" >
		<g id="Layer_2" data-name="Layer 2">
			<g id="Layer_1-2" data-name="Layer 1-2">
				<g id="move_LAB_A_Space_of_Ideas" data-name="move LAB A Space of Ideas">
					<g id="a_space_of_ideas" data-name="a space of ideas">
						<path class="cls-1" d="M0,179.32V0h29.4v155.1h77.9v24.2Z"></path>
						<path class="cls-1" d="M142.71,179.32,201.91,0h55.9l59,179.3h-29.9l-16.6-50.4h-80.8l-16.6,50.4Zm54.6-74.9h65l-32.5-98.7Z"></path>
						<path class="cls-1" d="M360.91,179.32V0h57.9c44.9,0,66,16.1,66,48.3,0,21.3-16.4,33.8-34.8,37.4v.8c29.1,2.3,43.4,17.7,43.4,41.3,0,32.5-22.6,51.4-66.8,51.4h-65.7Zm29.4-155.1v50.1h29.1c24.2,0,34.8-9.1,34.8-25.2,0-16.4-8.8-24.9-33-24.9Zm0,74.3v56.6h36.9c26,0,35.6-10.7,35.6-28.3,0-17.9-12-28.3-37.9-28.3Z"></path>
					</g>
				</g>
			</g>
		</g>
	</svg>
	<svg x="4180" y="500">
	  <text x="0" y="300" font-size="260" >by FREE NOW</text>
	</svg>
</svg>

